<?xml version="1.0" encoding="UTF-8"?>
<svg id="Layer_2" data-name="Layer 2" xmlns="http://www.w3.org/2000/svg" viewBox="0 0 325.79 132.97">
  <defs>
    <style>
      .cls-1 {
        fill: #dd6a84;
      }
    </style>
  </defs>
  <g id="Layer_1-2" data-name="Layer 1">
    <g>
      <path class="cls-1" d="M45.16,35.18c-8.93.86-17.99,2.57-26.31,5.74v.25h3.31c.61,0,6.6-.49,6.6,1.35,0,1.47-2.69,2.08-3.79,2.2-6,.97-14.56,4.77-20.32,4.77-2.81,0-4.65-1.47-4.65-4.28,0-2.08,1.23-6.35,1.72-8.43,1.59-6.48,5.63-9.17,11.62-11.86,11.63-5.01,28.88-8.56,41.61-8.56,9.18,0,21.41,1.47,29.24,6.48,8.93,5.74,12.85,16.75,12.85,27.01,0,17.6-14.56,31.54-29,39.73-13.22,7.46-35.24,13.69-50.54,13.69-2.81,0-8.08,0-10.53-1.35-2.32-1.22-2.81-4.16-2.81-6.48,0-9.05,6.36-17.11,11.75-23.84l29.25-36.43ZM20.93,78.94c-3.79,5.01-3.31,6.73-2.57,8.31.49.73,1.96,2.08,6.98,2.2,8.44.12,19.58-2.32,28.15-5.26,25.69-9.05,34.62-22,34.62-32.76,0-15.77-25.08-16.14-36.1-16.75-.98,3.91-1.59,5.87-4.04,9.04l-27.05,35.2Z"/>
      <path class="cls-1" d="M137.15,83.71c-7.47,8.68-20.93,20.17-33.04,20.17-8.93,0-13.09-7.95-13.34-16.01-.48-16.01,17.26-32.39,33.16-32.27,3.92,0,8.81.98,8.81,5.87,0,5.99-5.99,15.04-29.49,22.74l-.25,2.69c-.37,4.65,3.67,6.24,7.59,6.24,8.69,0,18.97-8.92,25.45-14.06l1.1,4.65ZM121.97,64.03c0-.86-.61-1.59-1.47-1.35-6.12,1.59-13.22,7.46-16.52,15.52,10.77-3.67,18.11-12.1,17.99-14.18Z"/>
      <path class="cls-1" d="M178,80.9l1.22,4.65c-7.46,7.46-20.8,18.58-30.59,18.09-8.2-.36-17.26-5.01-19.46-13.93-.73.73-1.59,1.59-2.69,1.59-1.23,0-2.08-1.22-2.08-2.32,0-1.59,1.96-3.3,2.94-4.28l26.55-24.32c.25-4.03,2.57-7.95,6.98-7.95,3.67,0,4.41,1.1,4.77,4.52.49,4.64,2.32,8.8,2.32,14.18,0,10.02-8.08,17.48-15.91,22.25,7.83,1.34,12.6-2.32,18.6-6.85l7.34-5.63ZM136.4,83.47c4.53.25,7.22,4.03,9.54,7.21,7.35-4.52,9.3-6.6,9.67-13.69-.37-2.57-.86-5.87-1.59-10.02l-17.62,16.5Z"/>
      <path class="cls-1" d="M213.84,86.03c-5.51,6.72-16.27,17.72-25.57,17.72-7.22,0-10.53-8.31-10.53-14.55,0-14.91,15.3-29.46,22.64-29.46,2.08,0,5.38.73,5.38,3.42,0,6.11-12.11,16.99-17.25,20.54-.98,5.01.86,7.7,6.48,7.7,6.48,0,12.85-6.48,17.74-10.02l1.1,4.64ZM202.09,52.05c0-5.01,5.87-9.41,10.65-9.41,2.2,0,4.04,1.59,4.04,3.79,0,4.89-4.53,10.88-9.79,10.88-2.94,0-4.9-2.32-4.9-5.26Z"/>
      <path class="cls-1" d="M246.02,84.2l-.25-.25c-4.41,4.89-17.26,16.01-23.99,16.01s-9.18-8.92-9.18-14.3c0-16.01,26.68-28.97,36.1-29.83,1.71-.12,6.48.37,6.48,3.06,0,2.2-2.44,3.91-4.04,5.01l-13.95,7.58c-7.71,4.16-16.76,7.58-15.66,16.5.13.98.86,1.22,1.96,1.22,3.42.37,10.89-2.57,15.54-7.58l13.09-14.43c1.23-1.34,2.69-3.42,4.65-3.42,2.45,0,4.65,4.16,4.65,6.24,0,1.83-1.71,4.64-2.57,6.23l-9.18,17.11.25.25,18.6-13.33.61,5.13-25.82,19.31c-12.85,20.41-23.61,28.24-28.39,28.24-1.71,0-2.81-1.34-2.81-2.93,0-8.8,18.6-24.2,25.33-29.09l8.57-16.75Z"/>
      <path class="cls-1" d="M324.8,77.72l.98,5.38c-6.49,5.74-19.09,20.78-28.03,20.78-4.65,0-6.85-3.91-6.85-8.07,0-7.33,6.6-15.4,10.52-21.02l-.24-.25c-7.1,5.26-13.34,11.61-18.85,18.7-1.83,2.32-6.36,8.31-9.66,8.31-5.39,0-6.73-7.7-6.86-11.85-.37-8.44,7.34-20.78,14.44-26.77,1.59-1.35,2.69-1.47,4.77-1.47,7.34.25,6.73,1.96,6.73,2.69,0,4.77-15.42,17.11-15.42,20.04,0,.73.61,1.35,1.35,1.35.86,0,1.96-1.1,2.44-1.71,9.79-12.47,32.31-27.5,35.86-27.5.48,0,1.22.61,1.96,2.32.73,1.83,1.47,4.03,1.83,6.6,0,4.77-15.05,14.06-15.05,22.49,0,1.1.98,2.2,2.2,2.2,2.94,0,8.32-4.28,10.53-6.11l7.34-6.11Z"/>
    </g>
    <g>
      <path class="cls-1" d="M137.01,29.17l3,1.58c-.98,1.93-2.12,3.49-3.42,4.68-1.29,1.19-2.74,2.09-4.35,2.71-1.61.62-3.44.93-5.48.93-4.52,0-8.05-1.48-10.6-4.44-2.55-2.96-3.82-6.3-3.82-10.03,0-3.51,1.08-6.64,3.23-9.38,2.73-3.49,6.4-5.24,10.98-5.24s8.49,1.79,11.31,5.37c2,2.53,3.02,5.68,3.06,9.46h-24.92c.07,3.21,1.1,5.85,3.08,7.9,1.99,2.06,4.44,3.08,7.37,3.08,1.41,0,2.78-.25,4.12-.74,1.33-.49,2.47-1.14,3.4-1.95.94-.81,1.95-2.12,3.03-3.93ZM137.01,21.71c-.48-1.9-1.17-3.42-2.08-4.55-.91-1.14-2.11-2.05-3.61-2.75-1.5-.7-3.07-1.04-4.72-1.04-2.72,0-5.05.87-7.01,2.62-1.43,1.27-2.51,3.18-3.24,5.72h20.64Z"/>
      <path class="cls-1" d="M147.04,0h3.56v38.34h-3.56V0Z"/>
      <path class="cls-1" d="M185.61,10.68v27.66h-3.51v-4.75c-1.49,1.81-3.17,3.18-5.03,4.09-1.86.92-3.89,1.37-6.1,1.37-3.92,0-7.27-1.42-10.04-4.26-2.77-2.84-4.16-6.29-4.16-10.36s1.4-7.39,4.2-10.22c2.8-2.83,6.17-4.25,10.11-4.25,2.27,0,4.33.48,6.17,1.45s3.46,2.42,4.85,4.35v-5.09h3.51ZM171.37,13.4c-1.98,0-3.81.49-5.49,1.46-1.68.97-3.01,2.34-4,4.1s-1.49,3.62-1.49,5.59.5,3.81,1.5,5.59,2.34,3.16,4.03,4.15c1.69.99,3.5,1.49,5.43,1.49s3.8-.49,5.54-1.47c1.75-.98,3.09-2.31,4.03-3.99.94-1.68,1.41-3.56,1.41-5.66,0-3.2-1.05-5.88-3.16-8.03-2.11-2.15-4.71-3.23-7.79-3.23Z"/>
      <path class="cls-1" d="M193.63,10.68h3.56v4.96c1.43-1.9,3-3.32,4.73-4.26s3.61-1.41,5.65-1.41,3.91.53,5.51,1.58,2.79,2.47,3.55,4.25,1.15,4.55,1.15,8.31v14.24h-3.56v-13.2c0-3.19-.13-5.31-.4-6.38-.41-1.83-1.2-3.21-2.38-4.13-1.17-.92-2.7-1.39-4.58-1.39-2.16,0-4.09.71-5.79,2.14-1.71,1.42-2.83,3.19-3.37,5.29-.34,1.37-.51,3.88-.51,7.53v10.15h-3.56V10.68Z"/>
      <path class="cls-1" d="M248.74,29.17l3,1.58c-.98,1.93-2.12,3.49-3.42,4.68-1.29,1.19-2.74,2.09-4.35,2.71-1.61.62-3.44.93-5.48.93-4.52,0-8.05-1.48-10.6-4.44-2.55-2.96-3.82-6.3-3.82-10.03,0-3.51,1.08-6.64,3.23-9.38,2.73-3.49,6.4-5.24,10.98-5.24s8.49,1.79,11.31,5.37c2,2.53,3.02,5.68,3.06,9.46h-24.92c.07,3.21,1.1,5.85,3.08,7.9,1.99,2.06,4.44,3.08,7.37,3.08,1.41,0,2.78-.25,4.12-.74s2.47-1.14,3.4-1.95c.94-.81,1.95-2.12,3.03-3.93ZM248.74,21.71c-.48-1.9-1.17-3.42-2.08-4.55-.91-1.14-2.11-2.05-3.61-2.75-1.5-.7-3.07-1.04-4.72-1.04-2.72,0-5.05.87-7.01,2.62-1.43,1.27-2.51,3.18-3.24,5.72h20.64Z"/>
      <path class="cls-1" d="M262.41.41h3.56v10.27h5.65v3.08h-5.65v24.59h-3.56V13.76h-4.86v-3.08h4.86V.41Z"/>
      <path class="cls-1" d="M280.07.41h3.56v10.27h5.65v3.08h-5.65v24.59h-3.56V13.76h-4.86v-3.08h4.86V.41Z"/>
      <path class="cls-1" d="M307.74,9.97c4.27,0,7.8,1.54,10.61,4.63,2.55,2.81,3.82,6.14,3.82,9.99s-1.35,7.24-4.04,10.13c-2.7,2.89-6.16,4.34-10.39,4.34s-7.72-1.45-10.42-4.34c-2.69-2.89-4.04-6.27-4.04-10.13s1.27-7.15,3.82-9.97c2.8-3.1,6.35-4.65,10.63-4.65ZM307.73,13.45c-2.96,0-5.51,1.09-7.64,3.28-2.13,2.19-3.19,4.83-3.19,7.93,0,2,.49,3.86,1.46,5.59.97,1.73,2.28,3.06,3.93,4s3.47,1.41,5.44,1.41,3.79-.47,5.44-1.41,2.96-2.28,3.93-4c.97-1.73,1.46-3.59,1.46-5.59,0-3.1-1.07-5.75-3.21-7.93-2.14-2.19-4.68-3.28-7.63-3.28Z"/>
    </g>
  </g>
</svg>